Simulation
nRows=15
nColumns=15
endheader
time  TH_x TH_y TH_z SC_y  SC_z  SC_x  AC_y  AC_z  AC_x  GH_y  GH_z  GH_yy  EL_x  PS_y
8.073123595505619  0.000000  0.000000  0.000000  -23.474362686649105  6.187178664170305  -5.02822602278297  57.75032195420562  8.928274739440337  8.65815634288356  -37.78577553631613  4.220841099437848  93.62510876808655  16.776677783417288  120.000000
8.113288389513109  0.000000  0.000000  0.000000  -23.119717905080797  6.1117439567807565  -5.587077372994267  57.89792138723136  8.487058992634672  9.014855585100063  -23.50127578118102  5.372291958584932  78.71901003554875  16.278457182471428  120.000000
8.153453183520599  0.000000  0.000000  0.000000  -22.756265196636132  6.001939328546294  -6.1619923467113615  58.10325886558677  8.060615951907598  9.408119625251059  -14.049639305384792  6.786030134568729  68.45363091199762  15.727945628813474  120.000000
8.19361797752809  0.000000  0.000000  0.000000  -22.398120470760894  5.872227217452666  -6.721070771708346  58.37451439877237  7.680434986132656  9.838925978657553  -7.4235226199824655  8.404915582276669  60.82621569259264  15.145315808325446  120.000000
8.23378277153558  0.000000  0.000000  0.000000  -22.062703835634014  5.74396241472025  -7.231926748458399  58.71687592167198  7.377909821694515  10.304567042872328  -2.481509308820515  10.218198066803504  54.70469755743017  14.552477944374761  120.000000
8.273947565543072  0.000000  0.000000  0.000000  -21.76579117159253  5.64103891832741  -7.6654845921201495  59.131568487482525  7.1800484183188535  10.799136737006762  1.3811178674877262  12.230289711699369  49.49801278309914  13.970921918772156  120.000000
8.314112359550561  0.000000  0.000000  0.000000  -21.518693017015817  5.5852004251309895  -7.998372745769219  59.61687851307565  7.1070209407274145  11.315113171229376  4.494825296401716  14.44490312448827  44.894186790062  13.419415498686742  120.000000
8.354277153558053  0.000000  0.000000  0.000000  -21.327357394170207  5.5922875453590475  -8.212991444111488  60.16762587452377  7.16950967358246  11.845686053858044  7.052524638793686  16.857891906528593  40.72282071308486  12.912326934888153  120.000000
8.394441947565543  0.000000  0.000000  0.000000  -21.19072854937457  5.669660994884421  -8.29767357864367  60.774636912962265  7.367733702732536  12.3857116076401  9.173178922841544  19.453400373055945  36.89164056627699  12.458801655026136  120.000000
8.434606741573035  0.000000  0.000000  0.000000  -21.102830072978918  5.818077860533878  -8.247556798362396  61.427689014040716  7.691752960491606  12.928908806481926  10.94293339673063  22.204748190543036  33.343619135981605  12.062882956221184  120.000000
8.474771535580524  0.000000  0.000000  0.000000  -21.056161616308938  6.034538874355628  -8.063690126382612  62.115137689463786  8.12391321398056  13.466808855111607  12.427858044367195  25.077560421990768  30.041771386729142  11.723784296310606  120.000000
8.514936329588014  0.000000  0.000000  0.000000  -21.043075803974833  6.312027392034813  -7.750473968464284  62.82211259225561  8.642020512127106  13.989353157878579  13.674845813747613  28.033250150287472  26.96613521932604  11.43690772777747  120.000000
8.555101123595506  0.000000  0.000000  0.000000  -21.05828826395349  6.641464614985448  -7.313826059006724  63.5336327293284  9.220959248101048  14.487875822599229  14.72128618569333  31.032881247980633  24.10161588278654  11.195195677110489  120.000000
8.595265917602996  0.000000  0.000000  0.000000  -21.09826535068858  7.012827242976246  -6.759387200094344  64.2357728516959  9.835059143945688  14.956761376021861  15.600954966696595  34.04005157483647  21.432590071316064  10.99179863195975  120.000000
8.635430711610487  0.000000  0.000000  0.000000  -21.159847749671307  7.41453112071338  -6.092891671999651  64.91483023574072  10.459488643326326  15.391511540281837  16.341507326348143  37.02370755284146  18.944047447837054  10.820826423101703  120.000000
